<?xml version="1.0" encoding="UTF-8" standalone="no"?>
<!DOCTYPE svg PUBLIC "-//W3C//DTD SVG 1.1//EN"
 "http://www.w3.org/Graphics/SVG/1.1/DTD/svg11.dtd">
<!-- Generated by graphviz version 6.0.1 (0)
 -->
<!-- Pages: 1 -->
<svg width="442pt" height="339pt"
 viewBox="0.00 0.00 442.00 339.20" xmlns="http://www.w3.org/2000/svg" xmlns:xlink="http://www.w3.org/1999/xlink">
<g id="graph0" class="graph" transform="scale(1 1) rotate(0) translate(4 335.2)">
<polygon fill="white" stroke="none" points="-4,4 -4,-335.2 438,-335.2 438,4 -4,4"/>
<!-- 1982929510832 -->
<g id="node1" class="node">
<title>1982929510832</title>
<ellipse fill="black" stroke="black" cx="189" cy="-329.4" rx="1.8" ry="1.8"/>
</g>
<!-- 1982928968960 -->
<g id="node2" class="node">
<title>1982928968960</title>
<ellipse fill="black" stroke="black" cx="207" cy="-289.8" rx="1.8" ry="1.8"/>
</g>
<!-- 1982929510832&#45;&gt;1982928968960 -->
<g id="edge4" class="edge">
<title>1982929510832&#45;&gt;1982928968960</title>
<path fill="none" stroke="black" d="M189.44,-327.47C191.19,-323.82 197.71,-310.21 202.29,-300.64"/>
<polygon fill="black" stroke="black" points="205.47,-302.1 206.63,-291.57 199.16,-299.08 205.47,-302.1"/>
</g>
<!-- 1982910723584 -->
<g id="node6" class="node">
<title>1982910723584</title>
<ellipse fill="black" stroke="black" cx="335" cy="-289.8" rx="1.8" ry="1.8"/>
</g>
<!-- 1982929510832&#45;&gt;1982910723584 -->
<g id="edge7" class="edge">
<title>1982929510832&#45;&gt;1982910723584</title>
<path fill="none" stroke="black" d="M190.26,-328.07C201.97,-325.06 291.86,-301.91 323.79,-293.69"/>
<polygon fill="black" stroke="black" points="324.72,-297.06 333.53,-291.18 322.97,-290.28 324.72,-297.06"/>
</g>
<!-- 1982910711424 -->
<g id="node9" class="node">
<title>1982910711424</title>
<ellipse fill="black" stroke="black" cx="63" cy="-162" rx="1.8" ry="1.8"/>
</g>
<!-- 1982929510832&#45;&gt;1982910711424 -->
<g id="edge12" class="edge">
<title>1982929510832&#45;&gt;1982910711424</title>
<path fill="none" stroke="black" d="M187.89,-327.82C179.32,-323.29 123.35,-292.74 95,-252 77.62,-227.03 68.64,-191.58 65,-173.9"/>
<polygon fill="black" stroke="black" points="68.42,-173.15 63.15,-163.96 61.54,-174.43 68.42,-173.15"/>
</g>
<!-- 1982910820800 -->
<g id="node14" class="node">
<title>1982910820800</title>
<ellipse fill="black" stroke="black" cx="153" cy="-289.8" rx="1.8" ry="1.8"/>
</g>
<!-- 1982929510832&#45;&gt;1982910820800 -->
<g id="edge21" class="edge">
<title>1982929510832&#45;&gt;1982910820800</title>
<path fill="none" stroke="black" d="M188.11,-327.47C184.42,-323.62 170.09,-308.65 160.92,-299.07"/>
<polygon fill="black" stroke="black" points="163.18,-296.37 153.74,-291.57 158.12,-301.21 163.18,-296.37"/>
</g>
<!-- 1982830477584 -->
<g id="node3" class="node">
<title>1982830477584</title>
<ellipse fill="none" stroke="black" cx="220" cy="-162" rx="27" ry="18"/>
<text text-anchor="middle" x="220" y="-158.3" font-family="Times New Roman,serif" font-size="14.00">2</text>
</g>
<!-- 1982928968960&#45;&gt;1982830477584 -->
<g id="edge1" class="edge">
<title>1982928968960&#45;&gt;1982830477584</title>
<path fill="none" stroke="black" d="M208.36,-288.4C215.52,-286.19 248.91,-274.87 261,-252 272.86,-229.57 256.98,-203.06 241.66,-184.85"/>
<polygon fill="black" stroke="black" points="244.03,-182.24 234.76,-177.1 238.8,-186.9 244.03,-182.24"/>
</g>
<!-- 1982830477744 -->
<g id="node4" class="node">
<title>1982830477744</title>
<ellipse fill="none" stroke="black" cx="225" cy="-234" rx="27" ry="18"/>
<text text-anchor="middle" x="225" y="-230.3" font-family="Times New Roman,serif" font-size="14.00">7</text>
</g>
<!-- 1982928968960&#45;&gt;1982830477744 -->
<g id="edge2" class="edge">
<title>1982928968960&#45;&gt;1982830477744</title>
<path fill="none" stroke="black" d="M207.31,-287.87C208.43,-284.53 212.36,-272.78 216.23,-261.21"/>
<polygon fill="black" stroke="black" points="219.55,-262.31 219.41,-251.71 212.92,-260.09 219.55,-262.31"/>
</g>
<!-- 1982830477552 -->
<g id="node5" class="node">
<title>1982830477552</title>
<ellipse fill="none" stroke="black" cx="153" cy="-234" rx="27" ry="18"/>
<text text-anchor="middle" x="153" y="-230.3" font-family="Times New Roman,serif" font-size="14.00">1</text>
</g>
<!-- 1982928968960&#45;&gt;1982830477552 -->
<g id="edge3" class="edge">
<title>1982928968960&#45;&gt;1982830477552</title>
<path fill="none" stroke="black" d="M206.06,-287.87C202.27,-284.09 187.64,-269.51 174.7,-256.62"/>
<polygon fill="black" stroke="black" points="176.93,-253.9 167.37,-249.32 171.99,-258.86 176.93,-253.9"/>
</g>
<!-- 1982830477776 -->
<g id="node7" class="node">
<title>1982830477776</title>
<ellipse fill="none" stroke="black" cx="407" cy="-234" rx="27" ry="18"/>
<text text-anchor="middle" x="407" y="-230.3" font-family="Times New Roman,serif" font-size="14.00">8</text>
</g>
<!-- 1982910723584&#45;&gt;1982830477776 -->
<g id="edge5" class="edge">
<title>1982910723584&#45;&gt;1982830477776</title>
<path fill="none" stroke="black" d="M336.02,-288.04C341,-284.32 363.3,-267.65 381.59,-253.98"/>
<polygon fill="black" stroke="black" points="383.72,-256.76 389.64,-247.97 379.53,-251.15 383.72,-256.76"/>
</g>
<!-- 1982830477712 -->
<g id="node8" class="node">
<title>1982830477712</title>
<ellipse fill="none" stroke="black" cx="335" cy="-234" rx="27" ry="18"/>
<text text-anchor="middle" x="335" y="-230.3" font-family="Times New Roman,serif" font-size="14.00">6</text>
</g>
<!-- 1982910723584&#45;&gt;1982830477712 -->
<g id="edge6" class="edge">
<title>1982910723584&#45;&gt;1982830477712</title>
<path fill="none" stroke="black" d="M335,-287.87C335,-284.64 335,-273.55 335,-262.35"/>
<polygon fill="black" stroke="black" points="338.5,-262.26 335,-252.26 331.5,-262.26 338.5,-262.26"/>
</g>
<!-- 1982830477808 -->
<g id="node10" class="node">
<title>1982830477808</title>
<ellipse fill="none" stroke="black" cx="63" cy="-90" rx="27" ry="18"/>
<text text-anchor="middle" x="63" y="-86.3" font-family="Times New Roman,serif" font-size="14.00">9</text>
</g>
<!-- 1982910711424&#45;&gt;1982830477808 -->
<g id="edge8" class="edge">
<title>1982910711424&#45;&gt;1982830477808</title>
<path fill="none" stroke="black" d="M63,-160.01C63,-155.41 63,-135.64 63,-118.44"/>
<polygon fill="black" stroke="black" points="66.5,-118.21 63,-108.21 59.5,-118.21 66.5,-118.21"/>
</g>
<!-- 1982910722816 -->
<g id="node11" class="node">
<title>1982910722816</title>
<ellipse fill="black" stroke="black" cx="16" cy="-90" rx="1.8" ry="1.8"/>
</g>
<!-- 1982910711424&#45;&gt;1982910722816 -->
<g id="edge11" class="edge">
<title>1982910711424&#45;&gt;1982910722816</title>
<path fill="none" stroke="black" d="M62.49,-160.26C59.24,-155.56 41.26,-129.51 27,-108 25.42,-105.62 23.74,-103.04 22.17,-100.62"/>
<polygon fill="black" stroke="black" points="24.94,-98.45 16.59,-91.93 19.05,-102.23 24.94,-98.45"/>
</g>
<!-- 1982830477648 -->
<g id="node12" class="node">
<title>1982830477648</title>
<ellipse fill="none" stroke="black" cx="27" cy="-18" rx="27" ry="18"/>
<text text-anchor="middle" x="27" y="-14.3" font-family="Times New Roman,serif" font-size="14.00">4</text>
</g>
<!-- 1982910722816&#45;&gt;1982830477648 -->
<g id="edge9" class="edge">
<title>1982910722816&#45;&gt;1982830477648</title>
<path fill="none" stroke="black" d="M16.16,-88.01C16.88,-83.41 19.98,-63.64 22.69,-46.44"/>
<polygon fill="black" stroke="black" points="26.2,-46.63 24.3,-36.21 19.29,-45.55 26.2,-46.63"/>
</g>
<!-- 1982830477680 -->
<g id="node13" class="node">
<title>1982830477680</title>
<ellipse fill="none" stroke="black" cx="104" cy="-18" rx="27" ry="18"/>
<text text-anchor="middle" x="104" y="-14.3" font-family="Times New Roman,serif" font-size="14.00">5</text>
</g>
<!-- 1982910722816&#45;&gt;1982830477680 -->
<g id="edge10" class="edge">
<title>1982910722816&#45;&gt;1982830477680</title>
<path fill="none" stroke="black" d="M16.48,-87.98C17.83,-85.19 21.9,-77.24 27,-72 41.09,-57.5 59.69,-44.57 75.09,-35.1"/>
<polygon fill="black" stroke="black" points="76.93,-38.08 83.72,-29.95 73.34,-32.07 76.93,-38.08"/>
</g>
<!-- 1982910820800&#45;&gt;1982830477552 -->
<g id="edge20" class="edge">
<title>1982910820800&#45;&gt;1982830477552</title>
<path fill="none" stroke="black" d="M153,-287.87C153,-284.64 153,-273.55 153,-262.35"/>
<polygon fill="black" stroke="black" points="156.5,-262.26 153,-252.26 149.5,-262.26 156.5,-262.26"/>
</g>
<!-- 1982904962432 -->
<g id="node15" class="node">
<title>1982904962432</title>
<ellipse fill="black" stroke="black" cx="106" cy="-234" rx="1.8" ry="1.8"/>
</g>
<!-- 1982910820800&#45;&gt;1982904962432 -->
<g id="edge19" class="edge">
<title>1982910820800&#45;&gt;1982904962432</title>
<path fill="none" stroke="black" d="M152.04,-287.95C147.69,-284.08 129.5,-267.64 117,-252 115.15,-249.68 113.32,-247.04 111.7,-244.54"/>
<polygon fill="black" stroke="black" points="114.69,-242.73 106.53,-235.97 108.69,-246.34 114.69,-242.73"/>
</g>
<!-- 1982904962432&#45;&gt;1982830477584 -->
<g id="edge18" class="edge">
<title>1982904962432&#45;&gt;1982830477584</title>
<path fill="none" stroke="black" d="M106.44,-231.95C107.71,-229.06 111.58,-220.91 117,-216 137.3,-197.62 165.14,-183.8 186.76,-174.89"/>
<polygon fill="black" stroke="black" points="188.2,-178.08 196.2,-171.14 185.62,-171.58 188.2,-178.08"/>
</g>
<!-- 1982911690432 -->
<g id="node16" class="node">
<title>1982911690432</title>
<ellipse fill="black" stroke="black" cx="110" cy="-162" rx="1.8" ry="1.8"/>
</g>
<!-- 1982904962432&#45;&gt;1982911690432 -->
<g id="edge17" class="edge">
<title>1982904962432&#45;&gt;1982911690432</title>
<path fill="none" stroke="black" d="M106.06,-232.01C106.41,-225.82 108.34,-192.12 109.36,-174.21"/>
<polygon fill="black" stroke="black" points="112.86,-174.24 109.94,-164.05 105.87,-173.84 112.86,-174.24"/>
</g>
<!-- 1982910714176 -->
<g id="node17" class="node">
<title>1982910714176</title>
<ellipse fill="black" stroke="black" cx="110" cy="-90" rx="1.8" ry="1.8"/>
</g>
<!-- 1982911690432&#45;&gt;1982910714176 -->
<g id="edge15" class="edge">
<title>1982911690432&#45;&gt;1982910714176</title>
<path fill="none" stroke="black" d="M110,-160.01C110,-153.82 110,-120.12 110,-102.21"/>
<polygon fill="black" stroke="black" points="113.5,-102.05 110,-92.05 106.5,-102.05 113.5,-102.05"/>
</g>
<!-- 1982830477616 -->
<g id="node18" class="node">
<title>1982830477616</title>
<ellipse fill="none" stroke="black" cx="157" cy="-90" rx="27" ry="18"/>
<text text-anchor="middle" x="157" y="-86.3" font-family="Times New Roman,serif" font-size="14.00">3</text>
</g>
<!-- 1982911690432&#45;&gt;1982830477616 -->
<g id="edge16" class="edge">
<title>1982911690432&#45;&gt;1982830477616</title>
<path fill="none" stroke="black" d="M110.53,-160.21C113.51,-155.77 128.54,-133.39 140.71,-115.26"/>
<polygon fill="black" stroke="black" points="143.73,-117.05 146.39,-106.8 137.91,-113.15 143.73,-117.05"/>
</g>
<!-- 1982910714176&#45;&gt;1982830477648 -->
<g id="edge14" class="edge">
<title>1982910714176&#45;&gt;1982830477648</title>
<path fill="none" stroke="black" d="M109.51,-87.99C108.14,-85.22 104.01,-77.32 99,-72 86.05,-58.24 69.13,-45.58 54.95,-36.09"/>
<polygon fill="black" stroke="black" points="56.83,-33.13 46.54,-30.61 53,-39 56.83,-33.13"/>
</g>
<!-- 1982910714176&#45;&gt;1982830477680 -->
<g id="edge13" class="edge">
<title>1982910714176&#45;&gt;1982830477680</title>
<path fill="none" stroke="black" d="M109.92,-88.01C109.52,-83.41 107.83,-63.64 106.35,-46.44"/>
<polygon fill="black" stroke="black" points="109.82,-45.88 105.48,-36.21 102.84,-46.47 109.82,-45.88"/>
</g>
</g>
</svg>
